<?xml version="1.0" standalone="no"?>
<!DOCTYPE svg PUBLIC "-//W3C//DTD SVG 20010904//EN"
 "http://www.w3.org/TR/2001/REC-SVG-20010904/DTD/svg10.dtd">
<svg version="1.0" xmlns="http://www.w3.org/2000/svg"
 width="500.000000pt" height="500.000000pt" viewBox="0 0 500.000000 500.000000"
 preserveAspectRatio="xMidYMid meet">
<metadata>
Created by potrace 1.14, written by Peter Selinger 2001-2017
</metadata>
<g transform="translate(0.000000,500.000000) scale(0.100000,-0.100000)"
fill="#000000" stroke="none">
<path d="M1245 3251 c-17 -10 -38 -29 -46 -42 -9 -13 -60 -133 -115 -267 -67
-166 -100 -237 -105 -225 -56 149 -431 82 -631 -112 -208 -203 -234 -539 -55
-701 70 -64 138 -88 252 -92 156 -6 255 35 364 147 66 70 148 234 283 569 86
217 94 232 102 203 15 -52 49 -81 96 -81 50 0 73 11 123 59 45 42 48 56 -42
-162 -80 -192 -90 -239 -63 -300 15 -34 31 -51 62 -67 38 -20 55 -21 193 -18
140 3 155 5 184 26 38 27 59 88 45 130 -15 46 -55 66 -138 70 -51 3 -74 8 -71
16 3 6 64 160 137 341 73 182 137 345 142 364 22 76 -29 147 -111 158 -72 10
-107 -12 -243 -145 -71 -69 -129 -123 -131 -121 -2 2 -14 44 -27 93 -13 48
-33 102 -45 119 -38 58 -104 73 -160 38z m-366 -812 c-117 -286 -192 -379
-306 -379 -83 0 -133 63 -133 167 0 73 24 127 84 191 58 62 130 97 242 117 49
9 105 19 124 23 19 5 36 7 38 7 1 -1 -21 -58 -49 -126z"/>
<path d="M3140 3250 c0 -5 -6 -7 -14 -4 -19 7 -69 -20 -101 -53 -21 -24 -25
-37 -25 -90 0 -55 3 -65 27 -88 15 -14 36 -25 45 -25 10 0 18 -4 18 -8 0 -5
41 -8 90 -7 111 1 119 -3 98 -47 -19 -39 -40 -89 -44 -103 -8 -32 -30 -81 -39
-87 -5 -4 -6 -8 -1 -8 5 0 3 -7 -4 -15 -6 -8 -9 -19 -5 -25 3 -5 3 -10 -2 -10
-6 0 -44 -77 -49 -100 -2 -9 -16 -44 -42 -100 -14 -30 -25 -63 -24 -72 0 -10
-3 -18 -9 -18 -5 0 -9 -5 -9 -10 0 -6 -7 -26 -15 -46 -8 -19 -14 -35 -13 -37
0 -1 -9 -21 -21 -44 -12 -24 -19 -43 -17 -43 3 0 -7 -24 -21 -52 -15 -29 -26
-58 -26 -65 0 -7 -4 -13 -9 -13 -4 0 -8 -6 -8 -14 0 -7 -11 -29 -24 -49 -19
-28 -21 -37 -11 -41 8 -3 17 -1 21 5 4 6 11 6 20 -2 8 -6 14 -8 14 -3 0 8 42
11 234 13 38 1 66 4 63 7 -3 4 0 16 8 28 8 11 15 28 15 38 0 10 5 18 11 18 5
0 8 4 4 9 -3 5 0 13 6 16 5 4 8 13 5 21 -3 8 -2 14 2 14 9 0 36 60 35 78 -1 6
3 12 8 12 4 0 11 16 15 35 3 19 11 35 17 35 6 0 7 3 4 7 -4 3 -3 11 2 17 11
14 36 88 33 99 -1 4 3 7 8 7 6 0 10 4 10 9 0 5 5 22 12 38 6 15 12 30 13 33 1
3 7 18 13 33 7 15 15 40 19 55 3 15 12 33 20 40 7 7 13 21 13 30 0 10 6 26 14
37 7 11 14 23 15 28 0 4 8 24 17 45 9 20 17 42 18 47 1 6 8 20 15 33 7 13 11
28 8 35 -2 6 4 20 14 30 10 11 15 25 12 33 -6 16 -11 15 127 19 58 1 106 3
108 5 1 1 5 3 10 4 31 8 56 21 77 42 13 13 21 24 18 24 -3 0 -1 6 4 13 6 6 10
41 10 76 0 56 -3 67 -25 88 -15 14 -34 22 -44 20 -10 -3 -18 -1 -18 4 0 5
-157 9 -375 9 -235 0 -375 -4 -375 -10z"/>
<path d="M4107 2814 c-2 -2 -22 -5 -44 -7 -23 -2 -47 -7 -55 -13 -7 -5 -30
-18 -51 -29 -68 -34 -180 -179 -180 -232 0 -7 -4 -13 -8 -13 -4 0 -6 -8 -4
-17 1 -10 0 -22 -4 -28 -8 -13 -10 -137 -2 -150 5 -10 8 -18 14 -52 2 -9 9
-19 15 -21 7 -2 12 -9 12 -16 0 -16 51 -56 92 -73 35 -15 224 -18 232 -4 10
16 59 23 67 9 13 -20 215 -24 262 -4 62 26 93 100 66 159 -17 38 -56 55 -128
56 -27 1 -31 4 -22 14 6 8 8 17 4 20 -3 4 -2 7 4 7 5 0 16 19 23 43 6 23 19
54 26 69 8 15 14 29 13 30 -2 2 4 14 11 28 8 14 13 28 12 33 -1 4 3 7 9 7 5 0
8 4 4 9 -3 5 -1 12 4 15 14 9 6 79 -13 108 -27 41 -115 53 -165 21 -20 -13
-28 -13 -50 -2 -14 7 -28 13 -31 14 -3 0 -14 4 -25 8 -24 8 -83 16 -88 11z
m58 -230 c9 -9 15 -19 13 -23 -2 -3 -10 -23 -18 -43 -8 -21 -18 -38 -23 -38
-4 0 -6 -3 -4 -7 3 -5 -5 -26 -17 -48 -18 -31 -30 -41 -57 -45 -39 -7 -61 -2
-53 11 3 5 1 9 -4 9 -24 0 8 103 45 145 16 19 78 54 95 55 4 0 14 -7 23 -16z"/>
<path d="M2293 2796 c-164 -53 -285 -241 -271 -420 8 -96 61 -179 131 -205 44
-17 213 -14 248 4 27 14 32 14 51 0 17 -11 50 -15 133 -15 91 0 115 3 142 20
41 25 55 52 51 102 -4 52 -37 79 -107 86 -28 2 -51 8 -51 11 0 4 25 68 55 144
71 176 72 227 5 262 -39 20 -78 19 -122 -4 -36 -18 -37 -18 -68 2 -39 25 -140
32 -197 13z m143 -211 c8 -19 -66 -194 -86 -205 -11 -6 -33 -10 -50 -10 -90 0
-33 190 70 228 28 11 60 4 66 -13z"/>
</g>
</svg>
